<svg viewBox="0 0 600 300" xmlns="http://www.w3.org/2000/svg">
  <defs>
    <linearGradient id="automationGradient" x1="0%" y1="0%" x2="100%" y2="0%">
      <stop offset="0%" style="stop-color:#f59e0b;stop-opacity:0.8" />
      <stop offset="50%" style="stop-color:#fbbf24;stop-opacity:0.6" />
      <stop offset="100%" style="stop-color:#fcd34d;stop-opacity:0.4" />
    </linearGradient>
    <filter id="automationGlow">
      <feGaussianBlur stdDeviation="2" result="coloredBlur"/>
      <feMerge> 
        <feMergeNode in="coloredBlur"/>
        <feMergeNode in="SourceGraphic"/>
      </feMerge>
    </filter>
  </defs>
  
  <!-- Gear mechanisms -->
  <g filter="url(#automationGlow)">
    <!-- Large gear -->
    <circle cx="150" cy="150" r="40" fill="none" stroke="#f59e0b" stroke-width="4"/>
    <circle cx="150" cy="150" r="30" fill="url(#automationGradient)" opacity="0.3"/>
    <g>
      <rect x="145" y="110" width="10" height="20" fill="#f59e0b"/>
      <rect x="145" y="170" width="10" height="20" fill="#f59e0b"/>
      <rect x="110" y="145" width="20" height="10" fill="#f59e0b"/>
      <rect x="170" y="145" width="20" height="10" fill="#f59e0b"/>
      <animateTransform attributeName="transform" type="rotate" values="0 150 150;360 150 150" dur="4s" repeatCount="indefinite"/>
    </g>
    
    <!-- Medium gear -->
    <circle cx="250" cy="120" r="25" fill="none" stroke="#fbbf24" stroke-width="3"/>
    <circle cx="250" cy="120" r="18" fill="url(#automationGradient)" opacity="0.4"/>
    <g>
      <rect x="247" y="95" width="6" height="12" fill="#fbbf24"/>
      <rect x="247" y="133" width="6" height="12" fill="#fbbf24"/>
      <rect x="225" y="117" width="12" height="6" fill="#fbbf24"/>
      <rect x="263" y="117" width="12" height="6" fill="#fbbf24"/>
      <animateTransform attributeName="transform" type="rotate" values="0 250 120;-360 250 120" dur="2.5s" repeatCount="indefinite"/>
    </g>
    
    <!-- Small gear -->
    <circle cx="320" cy="180" r="20" fill="none" stroke="#fcd34d" stroke-width="2"/>
    <circle cx="320" cy="180" r="15" fill="url(#automationGradient)" opacity="0.5"/>
    <g>
      <rect x="318" y="160" width="4" height="10" fill="#fcd34d"/>
      <rect x="318" y="190" width="4" height="10" fill="#fcd34d"/>
      <rect x="300" y="178" width="10" height="4" fill="#fcd34d"/>
      <rect x="330" y="178" width="10" height="4" fill="#fcd34d"/>
      <animateTransform attributeName="transform" type="rotate" values="0 320 180;360 320 180" dur="3s" repeatCount="indefinite"/>
    </g>
  </g>
  
  <!-- Workflow arrows -->
  <path d="M50,150 L100,150" stroke="#f59e0b" stroke-width="3" marker-end="url(#arrowhead)"/>
  <path d="M200,150 L220,135" stroke="#fbbf24" stroke-width="2"/>
  <path d="M275,135 L300,165" stroke="#fcd34d" stroke-width="2"/>
  <path d="M350,180 L400,180" stroke="#f59e0b" stroke-width="3" marker-end="url(#arrowhead)"/>
  
  <!-- Arrow marker -->
  <defs>
    <marker id="arrowhead" markerWidth="10" markerHeight="7" refX="10" refY="3.5" orient="auto">
      <polygon points="0 0, 10 3.5, 0 7" fill="#f59e0b"/>
    </marker>
  </defs>
  
  <!-- Input/Output boxes -->
  <rect x="20" y="130" width="60" height="40" rx="5" fill="#f59e0b" opacity="0.7"/>
  <text x="50" y="155" text-anchor="middle" fill="white" font-size="10" font-weight="bold">INPUT</text>
  
  <rect x="420" y="160" width="60" height="40" rx="5" fill="#10b981" opacity="0.8"/>
  <text x="450" y="185" text-anchor="middle" fill="white" font-size="10" font-weight="bold">OUTPUT</text>
  
  <!-- Data flow particles -->
  <circle r="3" fill="#f59e0b" opacity="0.8">
    <animateMotion dur="3s" repeatCount="indefinite" path="M80,150 Q150,150 200,150 Q250,135 275,135 Q300,165 350,180 Q400,180 450,180"/>
  </circle>
  <circle r="2" fill="#fbbf24" opacity="0.6">
    <animateMotion dur="3s" repeatCount="indefinite" begin="0.5s" path="M80,150 Q150,150 200,150 Q250,135 275,135 Q300,165 350,180 Q400,180 450,180"/>
  </circle>
  <circle r="2.5" fill="#fcd34d" opacity="0.7">
    <animateMotion dur="3s" repeatCount="indefinite" begin="1s" path="M80,150 Q150,150 200,150 Q250,135 275,135 Q300,165 350,180 Q400,180 450,180"/>
  </circle>
</svg>
