<svg viewBox="0 0 500 400" xmlns="http://www.w3.org/2000/svg">
  <defs>
    <radialGradient id="testimonialGradient" cx="50%" cy="50%" r="50%">
      <stop offset="0%" style="stop-color:#ec4899;stop-opacity:0.8" />
      <stop offset="100%" style="stop-color:#f472b6;stop-opacity:0.3" />
    </radialGradient>
    <filter id="testimonialShadow">
      <feDropShadow dx="2" dy="2" stdDeviation="4" flood-opacity="0.3"/>
    </filter>
  </defs>
  
  <!-- Speech bubbles -->
  <g filter="url(#testimonialShadow)">
    <!-- Main speech bubble -->
    <ellipse cx="250" cy="180" rx="120" ry="80" fill="url(#testimonialGradient)"/>
    <polygon points="190,240 160,280 220,250" fill="#ec4899" opacity="0.8"/>
    
    <!-- Smaller bubbles -->
    <circle cx="380" cy="120" r="35" fill="#f472b6" opacity="0.6"/>
    <polygon points="360,145 340,170 380,155" fill="#f472b6" opacity="0.6"/>
    
    <ellipse cx="120" cy="100" rx="40" ry="25" fill="#ec4899" opacity="0.5"/>
    <polygon points="95,120 75,140 115,125" fill="#ec4899" opacity="0.5"/>
  </g>
  
  <!-- Stars (rating indicators) -->
  <g fill="#fbbf24" opacity="0.8">
    <polygon points="250,140 255,155 270,155 258,165 263,180 250,170 237,180 242,165 230,155 245,155" transform="scale(0.6)">
      <animateTransform attributeName="transform" type="scale" values="0.6;0.8;0.6" dur="2s" repeatCount="indefinite"/>
    </polygon>
    <polygon points="280,120 285,135 300,135 288,145 293,160 280,150 267,160 272,145 260,135 275,135" transform="scale(0.5)">
      <animateTransform attributeName="transform" type="scale" values="0.5;0.7;0.5" dur="2.5s" repeatCount="indefinite"/>
    </polygon>
    <polygon points="320,160 325,175 340,175 328,185 333,200 320,190 307,200 312,185 300,175 315,175" transform="scale(0.4)">
      <animateTransform attributeName="transform" type="scale" values="0.4;0.6;0.4" dur="1.8s" repeatCount="indefinite"/>
    </polygon>
    <polygon points="220,110 225,125 240,125 228,135 233,150 220,140 207,150 212,135 200,125 215,125" transform="scale(0.5)">
      <animateTransform attributeName="transform" type="scale" values="0.5;0.7;0.5" dur="2.2s" repeatCount="indefinite"/>
    </polygon>
    <polygon points="190,170 195,185 210,185 198,195 203,210 190,200 177,210 182,195 170,185 185,185" transform="scale(0.3)">
      <animateTransform attributeName="transform" type="scale" values="0.3;0.5;0.3" dur="1.5s" repeatCount="indefinite"/>
    </polygon>
  </g>
  
  <!-- Thumbs up icons -->
  <g fill="#10b981" opacity="0.7">
    <path d="M100,300 Q100,290 110,290 L120,290 Q125,290 125,295 L125,320 Q125,325 120,325 L105,325 Q100,325 100,320 Z M110,285 Q115,280 120,285 Q125,290 120,295 L115,295 Q110,295 110,290 Z">
      <animateTransform attributeName="transform" type="translate" values="0,0;0,-5;0,0" dur="2s" repeatCount="indefinite"/>
    </path>
    <path d="M400,320 Q400,310 410,310 L420,310 Q425,310 425,315 L425,340 Q425,345 420,345 L405,345 Q400,345 400,340 Z M410,305 Q415,300 420,305 Q425,310 420,315 L415,315 Q410,315 410,310 Z">
      <animateTransform attributeName="transform" type="translate" values="0,0;0,-3;0,0" dur="2.5s" repeatCount="indefinite"/>
    </path>
  </g>
  
  <!-- Heart icons -->
  <g fill="#ef4444" opacity="0.6">
    <path d="M350,280 C350,275 355,270 360,275 C365,270 370,275 370,280 C370,290 360,300 360,300 C360,300 350,290 350,280 Z">
      <animateTransform attributeName="transform" type="scale" values="1;1.3;1" dur="1.5s" repeatCount="indefinite"/>
    </path>
    <path d="M80,250 C80,247 82,245 85,247 C88,245 90,247 90,250 C90,255 85,260 85,260 C85,260 80,255 80,250 Z">
      <animateTransform attributeName="transform" type="scale" values="1;1.2;1" dur="2s" repeatCount="indefinite"/>
    </path>
  </g>
  
  <!-- Connecting lines showing word of mouth -->
  <path d="M180,240 Q200,300 250,320" stroke="#ec4899" stroke-width="2" fill="none" opacity="0.5" stroke-dasharray="5,5">
    <animate attributeName="stroke-dashoffset" values="0;10;0" dur="3s" repeatCount="indefinite"/>
  </path>
  <path d="M320,220 Q360,270 400,300" stroke="#f472b6" stroke-width="2" fill="none" opacity="0.5" stroke-dasharray="3,3">
    <animate attributeName="stroke-dashoffset" values="0;6;0" dur="2s" repeatCount="indefinite"/>
  </path>
</svg>
